<svg xmlns="http://www.w3.org/2000/svg" viewBox="0 0 240 240" role="img" aria-labelledby="t d"><style>.blink{transform-box:fill-box;transform-origin:center;animation:blink 4.2s infinite}@keyframes blink{0%,45%,49%,100%{transform:scaleY(1)}47%{transform:scaleY(.08)}}</style><title id="t">黑猫酒保·夜影</title><desc id="d">穿酒保马甲、戴黑月胸针的神秘黑猫</desc><defs><radialGradient id="bg"><stop stop-color="#65507f"/><stop offset="1" stop-color="#170f21"/></radialGradient><linearGradient id="fur" x2="0" y2="1"><stop stop-color="#343141"/><stop offset="1" stop-color="#111018"/></linearGradient><filter id="g"><feGaussianBlur stdDeviation="5"/></filter></defs><circle cx="120" cy="120" r="114" fill="url(#bg)"/><circle cx="120" cy="120" r="103" fill="none" stroke="#d6b56d" stroke-width="3"/><path d="M47 89 55 25l48 40M193 89l-8-64-48 40" fill="url(#fur)" stroke="#0c0a10" stroke-width="7"/><path d="M44 112c0-48 34-78 76-78s76 30 76 78c0 55-31 91-76 91s-76-36-76-91Z" fill="url(#fur)"/><path d="M68 113q23-22 45 0-23 18-45 0Zm59 0q23-22 45 0-23 18-45 0Z" fill="#e8c85f"/><ellipse class="blink" cx="91" cy="113" rx="5" ry="12" fill="#18121d"/><ellipse class="blink" cx="149" cy="113" rx="5" ry="12" fill="#18121d"/><path d="m112 139 8 7 8-7" fill="#9e758c"/><path d="M102 156q18 13 36 0" fill="none" stroke="#d8c4b7" stroke-width="3" stroke-linecap="round"/><path d="M61 197q59-48 118 0l14 43H47Z" fill="#211626"/><path d="m87 180 33 32 33-32-12-8-21 14-21-14Z" fill="#eee0c5"/><circle cx="120" cy="207" r="10" fill="#d2aa54"/><path d="M120 199a9 9 0 1 0 9 9 12 12 0 0 1-9-9" fill="#261c31"/><path d="M33 125h37m100 0h37" stroke="#b8a6a1" stroke-width="2" opacity=".6"/></svg>
